<?xml version="1.0" standalone="no"?>
<!DOCTYPE svg PUBLIC "-//W3C//DTD SVG 20010904//EN"
 "http://www.w3.org/TR/2001/REC-SVG-20010904/DTD/svg10.dtd">
<svg version="1.0" xmlns="http://www.w3.org/2000/svg"
 width="512.000000pt" height="512.000000pt" viewBox="0 0 512.000000 512.000000"
 preserveAspectRatio="xMidYMid meet">
<metadata>
Created by potrace 1.15, written by Peter Selinger 2001-2017
</metadata>
<g transform="translate(0.000000,512.000000) scale(0.100000,-0.100000)"
fill="#000000" stroke="none">
<path d="M203 4958 c-174 -172 -196 -198 -191 -231 3 -19 32 5 192 163 103
102 192 193 197 203 8 14 5 17 -17 17 -21 0 -60 -33 -181 -152z"/>
<path d="M303 4858 c-140 -139 -264 -265 -275 -281 -10 -15 -18 -37 -16 -50 3
-18 49 23 292 263 158 157 292 293 297 303 8 14 5 17 -17 17 -22 0 -75 -47
-281 -252z"/>
<path d="M402 4758 c-194 -194 -362 -365 -373 -381 -11 -15 -19 -37 -17 -50 4
-18 67 40 392 363 213 212 392 393 397 403 8 14 5 17 -18 17 -22 0 -89 -62
-381 -352z"/>
<path d="M502 4658 c-249 -249 -462 -465 -473 -481 -11 -15 -19 -37 -17 -50 4
-18 84 57 492 463 268 267 492 493 497 503 8 14 5 17 -18 17 -22 0 -104 -76
-481 -452z"/>
<path d="M602 4558 c-304 -304 -562 -565 -573 -581 -11 -15 -19 -37 -17 -50 4
-18 101 75 592 563 323 322 592 593 597 603 8 14 5 17 -18 17 -23 0 -118 -91
-581 -552z"/>
<path d="M702 4458 c-359 -359 -662 -665 -673 -681 -11 -15 -19 -37 -17 -50 4
-18 118 92 692 663 378 377 692 693 697 703 8 14 5 17 -18 17 -23 0 -133 -106
-681 -652z"/>
<path d="M802 4358 c-414 -414 -762 -765 -773 -781 -11 -15 -19 -37 -17 -50 4
-18 136 109 792 763 433 432 792 793 797 803 8 14 5 17 -18 17 -23 0 -148
-120 -781 -752z"/>
<path d="M902 4258 c-469 -469 -862 -865 -873 -881 -11 -15 -19 -37 -17 -50 4
-18 153 126 892 863 488 487 892 893 897 903 8 14 5 17 -18 17 -23 0 -162
-135 -881 -852z"/>
<path d="M1002 4158 c-524 -524 -962 -965 -973 -981 -11 -15 -19 -37 -17 -50
3 -19 35 9 211 183 186 183 206 200 188 160 -11 -25 -25 -67 -32 -95 -11 -46
-27 -65 -190 -231 -141 -143 -179 -187 -179 -208 0 -14 3 -26 7 -26 4 0 81 74
172 165 l166 164 -1 -65 -2 -66 -171 -173 c-134 -135 -171 -178 -171 -199 0
-14 3 -26 7 -26 3 0 67 60 141 133 83 81 121 113 98 84 -49 -65 -80 -121 -106
-186 -13 -35 -43 -78 -81 -118 -39 -42 -59 -72 -59 -88 0 -14 2 -25 5 -25 3 0
25 18 48 39 l43 40 -4 -67 c-4 -62 -8 -70 -48 -116 -26 -28 -44 -58 -44 -72 0
-13 2 -24 5 -24 3 0 23 16 45 36 22 20 40 32 40 28 1 -5 5 -29 9 -54 9 -44 9
-45 -45 -103 -35 -38 -54 -67 -54 -83 0 -21 3 -23 18 -15 9 5 37 30 61 55 l45
46 18 -47 17 -47 -79 -83 c-58 -59 -80 -90 -80 -108 0 -35 17 -25 109 69 l75
75 23 -34 c13 -19 23 -37 23 -41 0 -4 -52 -60 -115 -125 -87 -89 -115 -124
-115 -144 0 -37 16 -26 150 109 l114 116 33 -32 33 -32 -165 -167 c-129 -130
-165 -172 -165 -193 0 -14 3 -26 7 -26 4 0 86 79 184 176 l177 176 36 -28 35
-29 -219 -221 c-176 -177 -220 -226 -220 -247 0 -15 3 -27 7 -27 4 0 114 106
244 236 l236 236 43 -22 43 -22 -287 -287 c-232 -233 -286 -293 -286 -314 0
-15 3 -27 7 -27 4 0 146 138 315 307 284 284 309 306 330 296 13 -6 39 -8 58
-6 32 5 4 -26 -338 -369 -305 -307 -372 -379 -372 -401 0 -15 3 -27 7 -27 4 0
163 156 354 346 l347 347 20 -44 19 -44 -373 -376 c-307 -307 -374 -380 -374
-402 0 -15 3 -27 7 -27 4 0 179 171 388 380 l381 381 27 -38 27 -38 -415 -415
c-344 -345 -415 -421 -415 -443 0 -23 3 -26 18 -18 9 5 204 197 432 425 l414
416 33 -32 33 -32 -465 -466 c-387 -388 -465 -471 -465 -493 0 -23 3 -26 18
-18 9 5 226 219 482 475 256 256 468 466 472 466 4 0 23 -10 43 -21 l37 -22
-526 -526 c-436 -436 -526 -531 -526 -554 0 -15 3 -27 7 -27 4 0 251 243 548
540 l541 540 48 -16 48 -17 -571 -571 c-314 -314 -571 -575 -571 -579 0 -4 12
-7 27 -7 23 0 124 97 598 570 l570 570 53 -7 c28 -3 52 -9 52 -12 0 -3 -243
-249 -541 -546 -297 -297 -545 -548 -550 -558 -8 -14 -5 -17 18 -17 23 0 119
92 588 559 l560 559 70 7 70 6 -558 -558 c-306 -307 -557 -562 -557 -566 0 -4
12 -7 27 -7 23 0 121 94 579 551 l551 551 11 -54 11 -53 -490 -490 c-269 -270
-489 -494 -489 -498 0 -4 12 -7 27 -7 22 0 108 81 494 466 465 464 466 466
473 434 15 -79 30 -62 -385 -475 -214 -215 -395 -398 -400 -407 -8 -15 -5 -18
18 -18 22 0 92 65 403 375 207 207 379 372 383 369 4 -4 7 -30 7 -58 l0 -51
-301 -300 c-165 -165 -305 -308 -310 -317 -8 -15 -5 -18 17 -18 23 0 80 52
314 286 l287 285 7 -57 7 -58 -221 -221 c-121 -122 -220 -224 -220 -228 0 -4
12 -7 26 -7 21 0 67 40 220 192 l194 192 0 -65 0 -64 -111 -110 c-130 -129
-141 -145 -104 -145 19 0 51 24 119 90 51 50 96 90 99 90 4 0 7 -5 7 -12 0 -6
10 -22 22 -35 l21 -23 -46 -49 c-26 -28 -47 -53 -47 -56 0 -3 11 -5 24 -5 15
0 45 19 78 48 47 43 61 50 131 64 l77 15 -55 -58 c-30 -31 -55 -60 -55 -63 0
-3 11 -6 25 -6 17 0 48 22 99 71 71 67 78 71 138 79 35 5 67 10 72 10 5 0 -23
-33 -62 -74 -40 -41 -72 -77 -72 -80 0 -3 11 -6 25 -6 19 0 50 24 114 85 l88
85 63 0 63 0 -76 -79 c-42 -43 -77 -81 -77 -85 0 -3 11 -6 25 -6 19 0 50 24
114 85 l88 85 63 0 63 0 -76 -79 c-42 -43 -77 -81 -77 -85 0 -3 11 -6 25 -6
19 0 50 24 114 85 87 84 89 85 139 85 28 0 53 -4 56 -8 3 -5 -22 -35 -55 -68
-78 -77 -88 -94 -54 -94 18 0 49 22 108 79 l82 79 53 -5 c28 -3 52 -9 52 -12
0 -4 -23 -29 -51 -56 -68 -67 -77 -85 -45 -85 18 0 47 20 95 65 71 67 93 75
159 57 22 -7 22 -8 -18 -47 -23 -22 -46 -48 -51 -57 -8 -15 -6 -18 15 -18 15
0 45 18 79 50 49 45 59 50 102 50 65 0 99 34 108 110 l7 54 870 871 c728 728
870 875 870 898 0 15 -3 27 -7 27 -4 0 -394 -386 -866 -857 l-859 -858 6 70 7
70 859 860 c719 720 860 865 860 888 0 15 -3 27 -6 27 -4 0 -47 -39 -96 -87
-82 -80 -89 -84 -70 -48 11 22 28 67 38 100 14 46 32 75 76 123 38 41 58 71
58 87 0 14 -2 25 -5 25 -3 0 -26 -19 -50 -41 l-45 -42 0 63 c0 61 1 63 50 117
32 34 50 64 50 79 0 20 -3 23 -17 15 -10 -5 -34 -26 -53 -45 l-34 -37 -12 53
-12 53 64 67 c43 46 64 76 64 93 0 14 -3 25 -6 25 -3 0 -36 -29 -74 -65 l-67
-65 -18 45 -17 46 91 94 c67 69 91 101 91 120 0 36 -17 25 -120 -79 -46 -47
-88 -86 -91 -86 -4 0 -17 16 -29 36 l-22 35 131 134 c100 102 131 139 131 159
0 14 -3 26 -7 26 -3 0 -70 -63 -147 -139 l-141 -140 -34 30 -33 31 181 182
c143 145 181 189 181 210 0 14 -3 26 -7 26 -4 0 -97 -90 -207 -199 l-201 -200
-53 12 -53 13 30 28 c28 27 32 27 77 18 60 -13 67 -6 60 63 l-4 50 179 181
c142 144 179 187 179 208 0 22 -3 25 -17 17 -10 -5 -92 -84 -183 -175 l-165
-166 -12 53 -12 52 195 196 c154 155 194 202 194 223 0 14 -3 26 -7 26 -4 0
-96 -88 -204 -196 l-197 -197 -22 43 -22 42 226 228 c181 182 226 232 226 253
0 15 -3 27 -7 27 -4 0 -111 -104 -238 -231 l-232 -230 -28 36 -27 37 266 267
c215 216 266 273 266 294 0 15 -3 27 -7 27 -4 0 -131 -124 -283 -274 l-275
-275 -34 30 -33 31 316 317 c259 261 316 322 316 345 0 22 -3 25 -17 17 -10
-5 -162 -154 -337 -329 l-319 -320 -39 26 -39 25 375 377 c308 308 376 381
376 403 0 15 -3 27 -7 27 -4 0 -184 -176 -400 -392 l-392 -391 -46 18 -47 17
446 447 c368 369 446 452 446 474 0 15 -3 27 -7 27 -4 0 -217 -210 -474 -466
l-466 -466 -42 7 c-28 5 -41 12 -41 23 0 9 232 249 515 532 430 430 515 520
515 543 0 23 -3 26 -17 18 -10 -5 -243 -235 -518 -510 -275 -276 -503 -501
-506 -501 -4 0 -12 21 -19 46 l-13 46 481 482 c265 265 482 485 482 489 0 4
-12 7 -27 7 -22 0 -108 -81 -493 -465 l-466 -466 -23 42 -24 41 417 417 c229
229 416 420 416 424 0 4 -12 7 -27 7 -22 0 -99 -72 -431 -402 l-403 -403 -30
35 -29 34 360 361 c198 198 360 364 360 368 0 4 -12 7 -27 7 -22 0 -91 -64
-378 -350 l-351 -351 -36 29 -36 29 304 304 c168 167 310 312 315 322 8 14 5
17 -17 17 -23 0 -83 -55 -334 -305 -168 -168 -309 -305 -312 -305 -4 0 -23 10
-43 21 l-37 22 276 276 c152 152 276 280 276 284 0 4 -12 7 -27 7 -21 0 -79
-52 -302 -273 l-276 -274 -49 14 -49 15 252 252 c138 138 251 255 251 259 0 4
-12 7 -27 7 -21 0 -76 -49 -282 -253 l-256 -252 -58 5 -57 5 230 230 c127 127
236 238 241 248 8 14 5 17 -17 17 -22 0 -75 -47 -279 -250 l-251 -250 -58 -10
c-32 -5 -68 -12 -79 -16 -12 -3 94 110 236 253 141 142 257 262 257 266 0 4
-12 7 -26 7 -21 0 -67 -40 -221 -192 l-193 -192 -29 34 -29 35 149 151 c82 83
149 154 149 157 0 4 -12 7 -26 7 -20 0 -59 -32 -168 -140 l-143 -140 -36 28
-36 29 95 94 c114 113 125 129 89 129 -19 0 -52 -25 -126 -97 l-99 -96 -40 18
c-22 10 -40 21 -40 24 0 4 25 31 56 61 73 72 83 90 50 90 -18 0 -47 -21 -95
-65 l-69 -65 -46 12 c-25 7 -46 15 -46 18 0 4 14 19 31 36 17 16 35 37 40 47
8 14 5 17 -15 17 -14 0 -44 -18 -74 -45 -48 -43 -53 -45 -112 -45 l-62 0 36
40 c20 22 36 42 36 45 0 3 -11 5 -24 5 -14 0 -44 -18 -75 -46 -41 -37 -63 -48
-113 -59 -35 -7 -72 -17 -83 -21 -11 -4 5 19 38 54 31 33 57 63 57 66 0 3 -11
6 -25 6 -19 0 -56 -29 -138 -107 -62 -60 -139 -128 -170 -151 -32 -24 -80 -71
-108 -105 -27 -34 -63 -79 -80 -99 -29 -37 -32 -38 -97 -38 l-66 0 242 243
c133 134 242 246 242 250 0 4 -12 7 -27 7 -21 0 -77 -51 -288 -260 -179 -178
-268 -260 -283 -260 -12 0 -52 -11 -89 -25 l-68 -26 278 279 c152 153 277 281
277 285 0 4 -12 7 -27 7 -23 0 -183 -155 -981 -952z m2028 429 c-36 -34 -93
-78 -125 -97 -33 -19 -106 -81 -163 -138 l-103 -104 32 64 c22 43 58 90 118
148 71 70 104 95 189 138 57 28 106 52 110 52 4 0 -22 -28 -58 -63z m-1956
-464 c-28 -69 -29 -83 -7 -83 12 0 0 -17 -36 -54 -38 -38 -64 -56 -90 -61 -20
-4 -63 -18 -96 -31 l-60 -24 155 155 c85 85 155 155 156 155 1 0 -9 -26 -22
-57z m1638 -1831 c15 -6 -17 -42 -158 -182 l-176 -175 7 70 7 70 111 113 c106
107 114 112 152 111 22 0 48 -4 57 -7z m-425 -650 l-465 -465 -15 49 -14 49
200 202 c184 185 202 200 223 191 35 -16 90 -1 117 32 18 21 27 47 32 92 l7
63 186 188 187 187 3 -62 3 -62 -464 -464z m-410 429 c10 -28 7 -32 -136 -175
l-146 -145 -22 34 c-13 19 -23 38 -23 43 0 16 227 231 265 251 51 26 49 26 62
-8z m1584 7 c22 -6 39 -14 39 -17 0 -3 -358 -364 -795 -801 l-795 -795 0 65 0
65 747 747 c412 412 752 748 757 748 5 0 26 -5 47 -12z m164 -52 l30 -14 -830
-830 c-725 -726 -835 -832 -866 -837 -34 -6 -37 -5 -42 22 -5 26 46 80 816
851 555 554 828 822 842 822 11 -1 34 -7 50 -14z m-865 -66 l0 -45 -452 -453
-453 -452 -11 52 -11 53 456 457 c303 305 458 453 463 445 4 -7 8 -32 8 -57z
m-822 -7 l24 -36 -148 -148 -149 -149 -22 43 -22 42 142 143 c78 78 144 142
147 142 3 0 16 -17 28 -37z m86 -115 l26 -33 -158 -157 c-86 -87 -160 -158
-163 -158 -4 0 -14 19 -24 42 l-16 42 148 148 c81 81 151 148 155 148 3 0 18
-15 32 -32z m308 -551 l-450 -450 -9 54 -10 54 451 453 451 452 9 -56 9 -56
-451 -451z m-183 425 c6 -3 -361 -372 -370 -372 -4 0 -12 21 -19 46 l-13 46
169 169 168 169 31 -28 c16 -15 32 -28 34 -30z m1325 21 c-9 -21 -29 -69 -44
-107 -27 -67 -37 -78 -616 -657 -469 -469 -595 -590 -619 -593 -16 -3 -50 -7
-74 -10 l-45 -5 705 705 c387 387 705 704 707 704 1 0 -5 -17 -14 -37z m-647
-54 c6 -6 25 -14 42 -18 31 -6 24 -13 -468 -505 l-499 -499 -7 58 -8 57 459
459 c252 253 461 459 464 459 4 0 11 -5 17 -11z m515 -318 l-25 -89 -441 -440
-441 -440 -70 -6 -70 -6 535 535 c294 294 535 535 536 535 1 0 -10 -40 -24
-89z m393 -471 c-175 -175 -320 -318 -321 -317 -1 1 3 34 9 73 l9 72 212 210
211 210 80 26 c44 15 87 31 95 36 8 5 17 10 20 10 3 0 -139 -144 -315 -320z
m-456 208 l-18 -82 -313 -313 -313 -313 -65 0 -65 0 395 395 c217 217 395 395
396 395 0 0 -7 -37 -17 -82z m336 -128 c-87 -87 -161 -158 -163 -156 -1 2 2
35 9 72 11 68 13 71 92 151 l81 82 65 4 c36 2 68 4 71 5 3 1 -67 -70 -155
-158z m-384 -127 l-12 -68 -197 -197 -197 -198 -57 0 c-32 0 -58 3 -58 7 0 11
523 533 528 528 2 -2 -1 -35 -7 -72z m-33 -228 l-9 -70 -92 -93 -93 -93 -58 7
-58 7 158 158 c87 87 159 157 160 156 1 -1 -3 -33 -8 -72z"/>
<path d="M4196 950 c-504 -503 -922 -923 -927 -932 -8 -15 -5 -18 18 -18 23 0
167 139 911 882 486 486 892 895 903 911 11 15 19 37 17 50 -4 18 -158 -132
-922 -893z"/>
<path d="M4296 850 c-449 -448 -822 -823 -827 -832 -8 -15 -5 -18 18 -18 23 0
152 124 811 783 431 430 792 794 803 810 11 15 19 37 17 50 -4 18 -141 -114
-822 -793z"/>
<path d="M4396 750 c-394 -393 -722 -723 -727 -732 -8 -15 -5 -18 18 -18 23 0
137 110 711 683 376 375 692 694 703 710 11 15 19 37 17 50 -4 18 -124 -97
-722 -693z"/>
<path d="M4496 650 c-339 -338 -622 -623 -627 -632 -8 -15 -5 -18 18 -18 23 0
123 95 611 583 321 320 592 594 603 610 11 15 19 37 17 50 -4 18 -106 -80
-622 -593z"/>
<path d="M4596 550 c-284 -283 -522 -523 -527 -533 -8 -14 -5 -17 18 -17 23 0
108 81 511 483 266 265 492 494 503 510 11 15 19 37 17 50 -4 18 -89 -62 -522
-493z"/>
<path d="M4696 450 c-229 -228 -422 -423 -427 -432 -8 -15 -5 -18 18 -18 22 0
93 66 411 383 211 210 392 394 403 410 11 15 19 37 17 50 -4 18 -72 -45 -422
-393z"/>
<path d="M4796 350 c-174 -173 -322 -323 -327 -332 -8 -15 -5 -18 17 -18 23 0
80 52 312 282 156 156 293 295 303 311 11 15 19 37 17 50 -4 18 -54 -28 -322
-293z"/>
<path d="M4896 250 c-119 -118 -222 -223 -227 -232 -8 -15 -5 -18 17 -18 21 0
65 37 211 183 205 202 226 227 221 260 -3 19 -37 -11 -222 -193z"/>
<path d="M4996 150 c-136 -133 -149 -150 -111 -150 18 0 49 23 111 82 102 98
127 130 122 161 -3 19 -19 7 -122 -93z"/>
</g>
</svg>
