<?xml version="1.0" standalone="no"?>
<!DOCTYPE svg PUBLIC "-//W3C//DTD SVG 20010904//EN"
 "http://www.w3.org/TR/2001/REC-SVG-20010904/DTD/svg10.dtd">
<svg version="1.0" xmlns="http://www.w3.org/2000/svg"
 width="256.000000pt" height="256.000000pt" viewBox="0 0 256.000000 256.000000"
 preserveAspectRatio="xMidYMid meet">
<metadata>
Created by potrace 1.15, written by Peter Selinger 2001-2017
</metadata>
<g transform="translate(0.000000,256.000000) scale(0.100000,-0.100000)"
fill="#000000" stroke="none">
<path d="M1398 1973 c-15 -16 -37 -47 -51 -71 l-24 -42 -13 25 c-20 37 -103
87 -156 93 -26 3 -76 -3 -120 -13 -59 -14 -84 -15 -110 -7 -31 9 -34 8 -34
-11 0 -67 98 -190 175 -223 39 -16 141 -19 179 -4 14 5 26 8 26 7 0 -1 -7 -24
-15 -51 -8 -27 -15 -62 -15 -78 0 -28 -2 -29 -32 -23 -18 4 -53 17 -78 28 -66
30 -169 29 -235 -3 -100 -48 -189 -172 -216 -298 -7 -33 -9 -92 -6 -142 14
-221 168 -515 303 -581 60 -29 149 -29 224 0 69 26 91 26 160 0 75 -29 164
-29 224 1 68 33 139 119 201 245 117 238 134 426 53 592 -87 177 -262 252
-421 179 -32 -14 -69 -26 -83 -26 -25 0 -25 2 -19 43 19 119 56 185 139 246
60 45 66 62 41 111 -21 40 -61 41 -97 3z"/>
</g>
</svg>
